<?xml version="1.0" encoding="UTF-8"?>
<svg id="Camada_1" data-name="Camada 1" xmlns="http://www.w3.org/2000/svg" viewBox="0 0 1000 400">
  <defs>
    <style>
      .cls-1 {
        fill: #ce3830;
      }

      .cls-2 {
        fill: #fff;
      }

      .cls-3 {
        fill: #d68130;
      }

      .cls-4 {
        fill: #63aa36;
      }

      .cls-5 {
        fill: #c2007b;
      }

      .cls-6 {
        fill: #f1d337;
      }
    </style>
  </defs>
  <g>
    <path class="cls-1" d="M829.52,53.95h-76.04c-1.62,0-2.92,1.33-2.92,2.96v77.06c0,1.64,1.31,2.96,2.92,2.96h76.04c1.62,0,2.92-1.33,2.92-2.96V56.92c0-1.64-1.31-2.96-2.92-2.96ZM810.45,115.15h-37.63c-.29,0-.52-.23-.52-.52v-38.15c0-.29.23-.52.52-.52h37.63c.29,0,.52.23.52.52v38.15c0,.29-.23.52-.52.52Z"/>
    <path class="cls-6" d="M848.27,57.34v76.29c0,1.59,1.35,2.87,3.01,2.87h23.67c1.66,0,3.01-1.29,3.01-2.87v-47.97c0-1.59,1.35-2.87,3.01-2.87h62.8c1.66,0,3.01-1.29,3.01-2.87v-22.58c0-1.59-1.35-2.87-3.01-2.87h-92.49c-1.66,0-3.01,1.29-3.01,2.87Z"/>
    <path class="cls-4" d="M753.49,197.57h160.46c1.67,0,3.02,1.33,3.02,2.96v48.91c0,1.64,1.35,2.96,3.02,2.96h23.77c1.67,0,3.02-1.33,3.02-2.96v-78.13c0-1.64-1.35-2.96-3.02-2.96h-190.28c-1.67,0-3.02,1.33-3.02,2.96v23.29c0,1.64,1.35,2.96,3.02,2.96Z"/>
    <path class="cls-5" d="M920.08,98.25c-14.56,0-26.4,11.98-26.4,26.7s11.85,26.69,26.4,26.69,26.4-11.97,26.4-26.69-11.85-26.7-26.4-26.7ZM920.08,137.19c-6.68,0-12.1-5.48-12.1-12.24s5.42-12.24,12.1-12.24,12.1,5.47,12.1,12.24-5.41,12.24-12.1,12.24Z"/>
    <rect class="cls-3" x="848.1" y="215.11" width="37.01" height="36.78" rx="6" ry="6"/>
    <path class="cls-2" d="M254.22,242.11L177.7,58.36c-1.1-2.56-3.56-4.22-6.27-4.22h-34.89c-2.72,0-5.18,1.66-6.28,4.24L54,242.11c-.97,2.28-.72,4.85.67,6.9,1.3,1.9,3.34,3,5.6,3h31.87c2.8,0,5.29-1.73,6.34-4.4l14.31-36.35h81.6l14.31,36.35c1.05,2.68,3.55,4.4,6.34,4.4h32.89c2.27,0,4.31-1.09,5.61-3,1.38-2.04,1.63-4.62.67-6.89ZM127.61,174.24l26.11-69.9,26.11,69.9h-52.22Z"/>
    <path class="cls-2" d="M442.08,212.43h-94.33l95.76-125.54c.99-1.25,1.53-2.84,1.53-4.45v-21.36c0-3.89-3.07-7.06-6.85-7.06h-142.38c-3.78,0-6.85,3.17-6.85,7.06v25.32c0,3.89,3.07,7.06,6.85,7.06h88.63l-95.43,124.81c-1.36,1.73-2.12,3.91-2.12,6.14v20.41c0,3.89,3.07,7.06,6.85,7.06h148.34c3.78,0,6.85-3.17,6.85-7.06v-25.32c0-3.89-3.07-7.06-6.85-7.06Z"/>
    <path class="cls-2" d="M635.68,54.01h-31.37c-3.78,0-6.85,3.12-6.85,6.97v102.29c0,16.88-3.42,29.47-10.17,37.44-6.37,7.52-15.65,11.18-28.38,11.18-25.94,0-38.54-15.9-38.54-48.62V60.98c0-3.84-3.07-6.97-6.85-6.97h-31.88c-3.78,0-6.85,3.12-6.85,6.97v103.9c0,27.77,7.47,49.57,22.2,64.79,14.4,14.88,35.72,22.74,61.66,22.74s47.27-7.86,61.66-22.74c14.73-15.22,22.2-37.02,22.2-64.79V60.98c0-3.84-3.07-6.97-6.85-6.97Z"/>
    <path class="cls-2" d="M825.85,215.2h-103.21c-1.76,0-3.19-1.45-3.19-3.24V60.95c0-3.62-3.07-6.57-6.85-6.57h-31.88c-3.78,0-6.85,2.95-6.85,6.57v184.35c0,3.62,3.07,6.57,6.85,6.57h145.13c3.78,0,6.85-2.95,6.85-6.57v-23.55c0-3.62-3.07-6.56-6.85-6.56Z"/>
    <g>
      <path class="cls-2" d="M91.6,329.24c-.33,3.31-1.33,6.23-2.99,8.78-1.66,2.55-3.86,4.52-6.58,5.92s-5.79,2.1-9.19,2.1c-3.88,0-7.3-.91-10.26-2.72-2.96-1.81-5.26-4.36-6.9-7.64-1.64-3.28-2.46-7.04-2.46-11.27s.82-7.99,2.46-11.27c1.64-3.28,3.94-5.83,6.9-7.64,2.96-1.81,6.38-2.72,10.26-2.72,3.4,0,6.47.7,9.19,2.1,2.73,1.4,4.92,3.38,6.58,5.92,1.66,2.55,2.66,5.47,2.99,8.78h-4.51c-.36-2.45-1.18-4.59-2.45-6.41-1.27-1.82-2.92-3.22-4.95-4.19-2.03-.98-4.34-1.46-6.93-1.46-3.03,0-5.67.69-7.93,2.06-2.26,1.38-4.01,3.34-5.24,5.9-1.23,2.56-1.84,5.53-1.84,8.93s.61,6.38,1.84,8.93c1.23,2.55,2.97,4.52,5.24,5.9,2.26,1.38,4.9,2.06,7.93,2.06,2.6,0,4.91-.49,6.94-1.46,2.02-.98,3.67-2.37,4.94-4.18,1.27-1.81,2.08-3.95,2.45-6.42h4.51Z"/>
      <path class="cls-2" d="M172.46,346.05c-3.91,0-7.37-.91-10.39-2.73-3.02-1.82-5.36-4.37-7.03-7.64-1.67-3.27-2.51-7.02-2.51-11.26s.83-7.99,2.51-11.26c1.67-3.27,4.01-5.82,7.03-7.64,3.02-1.82,6.48-2.73,10.39-2.73s7.35.91,10.38,2.73c3.03,1.82,5.37,4.37,7.04,7.64,1.67,3.27,2.51,7.02,2.51,11.26s-.84,7.99-2.51,11.26c-1.67,3.27-4.02,5.82-7.04,7.64-3.03,1.82-6.49,2.73-10.38,2.73ZM172.46,341.31c3.1,0,5.81-.69,8.13-2.06,2.32-1.38,4.11-3.34,5.37-5.9,1.26-2.55,1.89-5.53,1.89-8.93s-.63-6.38-1.89-8.93c-1.26-2.55-3.05-4.52-5.37-5.9-2.32-1.38-5.03-2.06-8.13-2.06s-5.82.69-8.13,2.06c-2.32,1.38-4.11,3.34-5.37,5.9-1.26,2.56-1.89,5.53-1.89,8.93s.63,6.38,1.89,8.93c1.26,2.55,3.05,4.52,5.37,5.9,2.32,1.38,5.03,2.06,8.13,2.06Z"/>
      <path class="cls-2" d="M301.27,303.51v41.81h-4.25v-40.56l1.73.06-17.92,40.5h-4.7l-17.92-40.47,1.73-.06v40.53h-4.25v-41.81h6.71l17.49,40.03h-2.77l17.45-40.03h6.71Z"/>
      <path class="cls-2" d="M384.74,303.51c2.43,0,4.57.52,6.42,1.57,1.85,1.05,3.29,2.52,4.3,4.4,1.02,1.89,1.52,4.05,1.52,6.48s-.51,4.59-1.52,6.48c-1.02,1.89-2.45,3.35-4.3,4.4-1.85,1.05-3.99,1.57-6.42,1.57h-16.19v-4.57h16.1c1.58,0,2.95-.32,4.14-.96,1.18-.64,2.09-1.56,2.72-2.76.63-1.2.95-2.59.95-4.17s-.32-2.99-.95-4.18c-.63-1.19-1.54-2.1-2.72-2.75-1.18-.64-2.56-.96-4.14-.96h-15.63l1.99-2.54v39.78h-4.44v-41.81h18.18Z"/>
      <path class="cls-2" d="M477.14,346.05c-3.91,0-7.37-.91-10.39-2.73-3.02-1.82-5.36-4.37-7.03-7.64-1.67-3.27-2.51-7.02-2.51-11.26s.83-7.99,2.51-11.26c1.67-3.27,4.01-5.82,7.03-7.64,3.02-1.82,6.48-2.73,10.39-2.73s7.35.91,10.38,2.73c3.03,1.82,5.37,4.37,7.04,7.64,1.67,3.27,2.51,7.02,2.51,11.26s-.84,7.99-2.51,11.26c-1.67,3.27-4.02,5.82-7.04,7.64-3.03,1.82-6.49,2.73-10.38,2.73ZM477.14,341.31c3.1,0,5.81-.69,8.13-2.06,2.32-1.38,4.11-3.34,5.37-5.9,1.26-2.55,1.89-5.53,1.89-8.93s-.63-6.38-1.89-8.93c-1.26-2.55-3.05-4.52-5.37-5.9-2.32-1.38-5.03-2.06-8.13-2.06s-5.82.69-8.13,2.06c-2.32,1.38-4.11,3.34-5.37,5.9-1.26,2.56-1.89,5.53-1.89,8.93s.63,6.38,1.89,8.93c1.26,2.55,3.05,4.52,5.37,5.9,2.32,1.38,5.03,2.06,8.13,2.06Z"/>
      <path class="cls-2" d="M562.47,331.78c.2,1.97.86,3.7,1.97,5.18,1.11,1.49,2.58,2.63,4.41,3.44,1.83.81,3.92,1.21,6.26,1.21s4.38-.32,6.13-.96c1.76-.64,3.11-1.57,4.05-2.77.95-1.21,1.42-2.63,1.42-4.26,0-1.28-.28-2.35-.85-3.2-.57-.85-1.49-1.55-2.77-2.08-1.28-.53-3-.94-5.18-1.24l-6.83-.98c-2.87-.41-5.2-1.08-6.98-2.02-1.79-.94-3.1-2.16-3.94-3.65-.84-1.5-1.25-3.3-1.25-5.42,0-2.47.63-4.63,1.89-6.47,1.26-1.84,3.04-3.26,5.34-4.26,2.3-1,4.96-1.51,7.99-1.51s5.74.55,8.13,1.66c2.39,1.11,4.29,2.64,5.68,4.61,1.39,1.97,2.16,4.25,2.3,6.83h-4.49c-.17-1.75-.77-3.27-1.78-4.57-1.02-1.3-2.38-2.31-4.09-3.02-1.71-.72-3.66-1.07-5.85-1.07s-4.04.31-5.65.92c-1.61.61-2.85,1.5-3.72,2.65-.87,1.15-1.31,2.52-1.31,4.1,0,1.26.28,2.31.83,3.15.55.84,1.44,1.52,2.66,2.05,1.22.53,2.86.94,4.93,1.24l6.74,1.03c3.14.46,5.62,1.12,7.45,1.98,1.83.86,3.15,1.99,3.97,3.4.82,1.41,1.23,3.22,1.23,5.44,0,2.62-.67,4.9-2.01,6.84-1.34,1.94-3.22,3.43-5.65,4.47-2.43,1.04-5.25,1.56-8.46,1.56s-6.11-.6-8.64-1.8c-2.53-1.2-4.53-2.88-6-5.03-1.47-2.16-2.28-4.64-2.42-7.44h4.49Z"/>
      <path class="cls-2" d="M654.21,303.51h4.44v41.81h-4.44v-41.81Z"/>
      <path class="cls-2" d="M720.35,303.51h34.89v4.63h-34.89v-4.63ZM735.57,306.05h4.44v39.27h-4.44v-39.27Z"/>
      <path class="cls-2" d="M832.47,346.05c-3.91,0-7.37-.91-10.39-2.73-3.02-1.82-5.36-4.37-7.03-7.64-1.67-3.27-2.51-7.02-2.51-11.26s.83-7.99,2.51-11.26c1.67-3.27,4.01-5.82,7.03-7.64,3.02-1.82,6.48-2.73,10.39-2.73s7.35.91,10.38,2.73c3.03,1.82,5.37,4.37,7.04,7.64,1.67,3.27,2.51,7.02,2.51,11.26s-.84,7.99-2.51,11.26c-1.67,3.27-4.02,5.82-7.04,7.64-3.03,1.82-6.49,2.73-10.38,2.73ZM832.47,341.31c3.1,0,5.81-.69,8.13-2.06,2.32-1.38,4.11-3.34,5.37-5.9,1.26-2.55,1.89-5.53,1.89-8.93s-.63-6.38-1.89-8.93c-1.26-2.55-3.05-4.52-5.37-5.9-2.32-1.38-5.03-2.06-8.13-2.06s-5.82.69-8.13,2.06c-2.32,1.38-4.11,3.34-5.37,5.9-1.26,2.56-1.89,5.53-1.89,8.93s.63,6.38,1.89,8.93c1.26,2.55,3.05,4.52,5.37,5.9,2.32,1.38,5.03,2.06,8.13,2.06Z"/>
      <path class="cls-2" d="M917.8,331.78c.2,1.97.86,3.7,1.97,5.18,1.11,1.49,2.58,2.63,4.41,3.44,1.83.81,3.92,1.21,6.26,1.21s4.38-.32,6.13-.96c1.76-.64,3.11-1.57,4.05-2.77s1.42-2.63,1.42-4.26c0-1.28-.28-2.35-.85-3.2s-1.49-1.55-2.77-2.08c-1.28-.53-3-.94-5.18-1.24l-6.83-.98c-2.87-.41-5.2-1.08-6.98-2.02-1.79-.94-3.1-2.16-3.94-3.65-.84-1.5-1.25-3.3-1.25-5.42,0-2.47.63-4.63,1.89-6.47,1.26-1.84,3.04-3.26,5.34-4.26,2.3-1,4.96-1.51,7.99-1.51s5.74.55,8.13,1.66c2.39,1.11,4.29,2.64,5.68,4.61,1.39,1.97,2.16,4.25,2.3,6.83h-4.49c-.17-1.75-.77-3.27-1.78-4.57-1.02-1.3-2.38-2.31-4.09-3.02-1.71-.72-3.66-1.07-5.85-1.07s-4.04.31-5.65.92c-1.61.61-2.85,1.5-3.72,2.65-.87,1.15-1.31,2.52-1.31,4.1,0,1.26.28,2.31.83,3.15.55.84,1.44,1.52,2.66,2.05,1.22.53,2.86.94,4.93,1.24l6.74,1.03c3.14.46,5.62,1.12,7.45,1.98,1.83.86,3.15,1.99,3.97,3.4.82,1.41,1.23,3.22,1.23,5.44,0,2.62-.67,4.9-2.01,6.84-1.34,1.94-3.22,3.43-5.65,4.47-2.43,1.04-5.25,1.56-8.46,1.56s-6.11-.6-8.64-1.8-4.53-2.88-6-5.03c-1.47-2.16-2.28-4.64-2.42-7.44h4.49Z"/>
    </g>
  </g>
  <path class="cls-2" d="M483.21,292.8l-5.47,6.41h-2.78l3.9-6.41h4.35Z"/>
</svg>