<?xml version="1.0" encoding="UTF-8"?>
<svg id="Camada_2" data-name="Camada 2" xmlns="http://www.w3.org/2000/svg" viewBox="0 0 168.06 56.47">
  <defs>
    <style>
      .cls-1 {
        fill: #f28522;
      }

      .cls-2 {
        fill: #fff;
      }

      .cls-3 {
        fill: #ffd712;
      }

      .cls-4 {
        fill: #e6007e;
      }

      .cls-5 {
        fill: #0eaf22;
      }

      .cls-6 {
        fill: #f2352c;
      }
    </style>
  </defs>
  <g id="Camada_1-2" data-name="Camada 1">
    <g>
      <g>
        <path class="cls-2" d="M7.22,53.31c-.06.62-.25,1.17-.56,1.65-.31.48-.73.85-1.24,1.11s-1.09.4-1.73.4c-.73,0-1.37-.17-1.93-.51-.56-.34-.99-.82-1.3-1.44-.31-.62-.46-1.32-.46-2.12s.15-1.5.46-2.12c.31-.62.74-1.1,1.3-1.44.56-.34,1.2-.51,1.93-.51.64,0,1.22.13,1.73.4s.93.64,1.24,1.11c.31.48.5,1.03.56,1.65h-.85c-.07-.46-.22-.86-.46-1.21-.24-.34-.55-.61-.93-.79-.38-.18-.82-.28-1.3-.28-.57,0-1.07.13-1.49.39-.43.26-.75.63-.99,1.11-.23.48-.35,1.04-.35,1.68s.12,1.2.35,1.68.56.85.99,1.11c.43.26.92.39,1.49.39.49,0,.92-.09,1.31-.28.38-.18.69-.45.93-.79.24-.34.39-.74.46-1.21h.85Z"/>
        <path class="cls-2" d="M22.44,56.47c-.74,0-1.39-.17-1.95-.51-.57-.34-1.01-.82-1.32-1.44-.31-.62-.47-1.32-.47-2.12s.16-1.5.47-2.12c.31-.62.76-1.09,1.32-1.44.57-.34,1.22-.51,1.95-.51s1.38.17,1.95.51c.57.34,1.01.82,1.33,1.44.31.62.47,1.32.47,2.12s-.16,1.5-.47,2.12c-.31.62-.76,1.09-1.33,1.44-.57.34-1.22.51-1.95.51ZM22.44,55.58c.58,0,1.09-.13,1.53-.39.44-.26.77-.63,1.01-1.11.24-.48.36-1.04.36-1.68s-.12-1.2-.36-1.68c-.24-.48-.57-.85-1.01-1.11-.44-.26-.95-.39-1.53-.39s-1.09.13-1.53.39c-.44.26-.77.63-1.01,1.11-.24.48-.36,1.04-.36,1.68s.12,1.2.36,1.68c.24.48.57.85,1.01,1.11.44.26.95.39,1.53.39Z"/>
        <path class="cls-2" d="M46.67,48.47v7.87h-.8v-7.63h.32s-3.37,7.63-3.37,7.63h-.88l-3.37-7.61h.32s0,7.61,0,7.61h-.8v-7.87h1.26l3.29,7.53h-.52l3.28-7.53h1.26Z"/>
        <path class="cls-2" d="M62.37,48.47c.46,0,.86.1,1.21.3.35.2.62.47.81.83.19.35.29.76.29,1.22s-.1.86-.29,1.22c-.19.35-.46.63-.81.83-.35.2-.75.3-1.21.3h-3.05v-.86h3.03c.3,0,.56-.06.78-.18.22-.12.39-.29.51-.52.12-.23.18-.49.18-.78s-.06-.56-.18-.79c-.12-.22-.29-.4-.51-.52-.22-.12-.48-.18-.78-.18h-2.94l.37-.48v7.48h-.84v-7.87h3.42Z"/>
        <path class="cls-2" d="M79.76,56.47c-.74,0-1.39-.17-1.95-.51-.57-.34-1.01-.82-1.32-1.44-.31-.62-.47-1.32-.47-2.12s.16-1.5.47-2.12c.31-.62.76-1.09,1.32-1.44.57-.34,1.22-.51,1.95-.51s1.38.17,1.95.51c.57.34,1.01.82,1.33,1.44.31.62.47,1.32.47,2.12s-.16,1.5-.47,2.12c-.31.62-.76,1.09-1.33,1.44-.57.34-1.22.51-1.95.51ZM79.76,55.58c.58,0,1.09-.13,1.53-.39.44-.26.77-.63,1.01-1.11.24-.48.36-1.04.36-1.68s-.12-1.2-.36-1.68c-.24-.48-.57-.85-1.01-1.11-.44-.26-.95-.39-1.53-.39s-1.09.13-1.53.39c-.44.26-.77.63-1.01,1.11-.24.48-.36,1.04-.36,1.68s.12,1.2.36,1.68c.24.48.57.85,1.01,1.11.44.26.95.39,1.53.39Z"/>
        <path class="cls-2" d="M95.81,53.78c.04.37.16.7.37.98.21.28.49.5.83.65.34.15.74.23,1.18.23s.82-.06,1.15-.18c.33-.12.58-.29.76-.52s.27-.49.27-.8c0-.24-.05-.44-.16-.6s-.28-.29-.52-.39c-.24-.1-.56-.18-.97-.23l-1.29-.18c-.54-.08-.98-.2-1.31-.38-.34-.18-.58-.41-.74-.69-.16-.28-.24-.62-.24-1.02,0-.46.12-.87.36-1.22.24-.35.57-.61,1.01-.8.43-.19.93-.28,1.5-.28s1.08.1,1.53.31c.45.21.81.5,1.07.87.26.37.41.8.43,1.28h-.84c-.03-.33-.14-.62-.34-.86-.19-.24-.45-.43-.77-.57-.32-.13-.69-.2-1.1-.2s-.76.06-1.06.17c-.3.12-.54.28-.7.5-.16.22-.25.47-.25.77,0,.24.05.44.16.59.1.16.27.29.5.39.23.1.54.18.93.23l1.27.19c.59.09,1.06.21,1.4.37.34.16.59.37.75.64.15.27.23.61.23,1.02,0,.49-.13.92-.38,1.29-.25.37-.61.65-1.06.84-.46.2-.99.29-1.59.29s-1.15-.11-1.63-.34-.85-.54-1.13-.95c-.28-.41-.43-.87-.46-1.4h.85Z"/>
        <path class="cls-2" d="M113.07,48.47h.84v7.87h-.84v-7.87Z"/>
        <path class="cls-2" d="M125.51,48.47h6.56v.87h-6.56v-.87ZM128.38,48.94h.84v7.39h-.84v-7.39Z"/>
        <path class="cls-2" d="M146.61,56.47c-.74,0-1.39-.17-1.95-.51-.57-.34-1.01-.82-1.32-1.44-.31-.62-.47-1.32-.47-2.12s.16-1.5.47-2.12c.31-.62.76-1.09,1.32-1.44.57-.34,1.22-.51,1.95-.51s1.38.17,1.95.51c.57.34,1.01.82,1.33,1.44.31.62.47,1.32.47,2.12s-.16,1.5-.47,2.12c-.31.62-.76,1.09-1.33,1.44-.57.34-1.22.51-1.95.51ZM146.61,55.58c.58,0,1.09-.13,1.53-.39.44-.26.77-.63,1.01-1.11.24-.48.36-1.04.36-1.68s-.12-1.2-.36-1.68c-.24-.48-.57-.85-1.01-1.11-.44-.26-.95-.39-1.53-.39s-1.09.13-1.53.39c-.44.26-.77.63-1.01,1.11-.24.48-.36,1.04-.36,1.68s.12,1.2.36,1.68c.24.48.57.85,1.01,1.11.44.26.95.39,1.53.39Z"/>
        <path class="cls-2" d="M162.66,53.78c.04.37.16.7.37.98.21.28.49.5.83.65.34.15.74.23,1.18.23s.82-.06,1.15-.18c.33-.12.58-.29.76-.52s.27-.49.27-.8c0-.24-.05-.44-.16-.6s-.28-.29-.52-.39c-.24-.1-.56-.18-.97-.23l-1.29-.18c-.54-.08-.98-.2-1.31-.38-.34-.18-.58-.41-.74-.69-.16-.28-.24-.62-.24-1.02,0-.46.12-.87.36-1.22.24-.35.57-.61,1.01-.8.43-.19.93-.28,1.5-.28s1.08.1,1.53.31c.45.21.81.5,1.07.87.26.37.41.8.43,1.28h-.84c-.03-.33-.14-.62-.34-.86-.19-.24-.45-.43-.77-.57-.32-.13-.69-.2-1.1-.2s-.76.06-1.06.17c-.3.12-.54.28-.7.5-.16.22-.25.47-.25.77,0,.24.05.44.16.59.1.16.27.29.5.39.23.1.54.18.93.23l1.27.19c.59.09,1.06.21,1.4.37.34.16.59.37.75.64.15.27.23.61.23,1.02,0,.49-.13.92-.38,1.29-.25.37-.61.65-1.06.84-.46.2-.99.29-1.59.29s-1.15-.11-1.63-.34-.85-.54-1.13-.95c-.28-.41-.43-.87-.46-1.4h.85Z"/>
      </g>
      <path class="cls-2" d="M79.22,46.88l-.4-.8,2.49-1.95.55,1.15-2.64,1.59Z"/>
    </g>
    <g>
      <g>
        <path class="cls-2" d="M14.68,2.21c.24-.62.66-1.14,1.23-1.54.58-.4,1.2-.61,1.86-.61h2.36c.63,0,1.24.21,1.84.63.59.42,1.01.93,1.26,1.52l13.58,33.89c.28.73.27,1.34-.03,1.82s-.81.72-1.55.72h-3.51c-.73,0-1.44-.24-2.12-.72s-1.16-1.08-1.44-1.82l-1.52-3.97h-15.31l-1.57,3.97c-.24.7-.72,1.3-1.42,1.79-.7.5-1.42.74-2.15.74h-3.51c-.77,0-1.29-.24-1.57-.72s-.28-1.08,0-1.82L14.68,2.21ZM23.59,24.31l-4.61-11.79-4.61,11.79h9.23Z"/>
        <path class="cls-2" d="M43.25,38.64c-.56,0-1.03-.19-1.42-.58s-.58-.87-.58-1.46v-2.65c0-1.43.4-2.66,1.21-3.69l16.57-22.15h-15c-.73,0-1.35-.26-1.86-.77s-.76-1.16-.76-1.93v-2.64c0-.77.25-1.41.76-1.93s1.13-.77,1.86-.77h24.64c.56,0,1.02.19,1.39.58.37.39.55.87.55,1.46v2.59c0,1.51-.4,2.74-1.21,3.69l-16.57,22.21h15.36c.73,0,1.35.26,1.84.77.49.51.73,1.16.73,1.93v2.65c0,.77-.24,1.41-.73,1.93-.49.51-1.1.77-1.84.77h-24.96Z"/>
        <path class="cls-2" d="M80.32,34.03c-3.11-3.07-4.67-6.88-4.67-11.43V2.66c0-.76.24-1.39.73-1.9.49-.51,1.1-.76,1.84-.76h3.15c.73,0,1.35.25,1.84.76.49.51.73,1.14.73,1.9v19.89c0,2.35.76,4.3,2.28,5.85,1.52,1.55,3.42,2.33,5.69,2.33s4.17-.78,5.69-2.33c1.52-1.55,2.28-3.5,2.28-5.85V2.66c0-.76.24-1.39.73-1.9.49-.51,1.1-.76,1.84-.76h3.15c.73,0,1.35.25,1.84.76.49.51.73,1.14.73,1.9v19.94c0,4.55-1.56,8.36-4.67,11.43-3.11,3.07-6.97,4.61-11.59,4.61s-8.48-1.54-11.59-4.61Z"/>
        <path class="cls-2" d="M114.83.83c.49-.51,1.1-.77,1.84-.77h3.15c.77,0,1.4.26,1.89.77s.73,1.16.73,1.93v27.83h23.32c.73,0,1.35.26,1.84.77.49.51.73,1.16.73,1.93v2.65c0,.77-.24,1.41-.73,1.93-.49.51-1.1.77-1.84.77h-29.09c-.73,0-1.35-.26-1.84-.77s-.73-1.16-.73-1.93V2.76c0-.77.24-1.41.73-1.93Z"/>
      </g>
      <g>
        <path class="cls-6" d="M143.65.04h-15.95c-.34,0-.61.28-.61.62v16.13c0,.34.27.62.61.62h15.95c.34,0,.61-.28.61-.62V.66c0-.34-.27-.62-.61-.62ZM139.76,12.86h-8.11V4.65h8.11v8.2Z"/>
        <path class="cls-3" d="M147.1.66v16.49c0,.34.27.62.61.62h4.82c.34,0,.61-.28.61-.62V6.78c0-.34.27-.62.61-.62h12.8c.34,0,.61-.28.61-.62V.66c0-.34-.27-.62-.61-.62h-18.85c-.34,0-.61.28-.61.62Z"/>
        <path class="cls-5" d="M127.7,27.67h32.57c.34,0,.61.27.61.59v9.79c0,.33.27.59.61.59h4.82c.34,0,.61-.27.61-.59v-15.63c0-.33-.27-.59-.61-.59h-38.62c-.34,0-.61.27-.61.59v4.66c0,.33.27.59.61.59Z"/>
        <path class="cls-4" d="M161.26,8.44c-3.13,0-5.67,2.57-5.67,5.74s2.55,5.74,5.67,5.74,5.67-2.57,5.67-5.74-2.55-5.74-5.67-5.74ZM161.26,16.81c-1.44,0-2.6-1.18-2.6-2.63s1.16-2.63,2.6-2.63,2.6,1.18,2.6,2.63-1.16,2.63-2.6,2.63Z"/>
        <rect class="cls-1" x="150.78" y="31.52" width="7.11" height="7.11" rx="1.04" ry="1.04"/>
      </g>
    </g>
  </g>
</svg>