<svg xmlns="http://www.w3.org/2000/svg" version="1.1" xmlns:xlink="http://www.w3.org/1999/xlink" width="1000" height="1000"><g clip-path="url(#SvgjsClipPath1909)"><rect width="1000" height="1000" fill="#ffffff"></rect><g transform="matrix(17.073170731707318,0,0,17.073170731707318,150,167.0731707317073)"><svg xmlns="http://www.w3.org/2000/svg" version="1.1" xmlns:xlink="http://www.w3.org/1999/xlink" width="41" height="39"><svg width="41" height="39" viewBox="0 0 41 39" fill="none" xmlns="http://www.w3.org/2000/svg">
<path d="M16.6498 0.0400391H0.699844C0.359844 0.0400391 0.0898438 0.320039 0.0898438 0.660039V16.79C0.0898438 17.13 0.359844 17.41 0.699844 17.41H16.6498C16.9898 17.41 17.2598 17.13 17.2598 16.79V0.660039C17.2598 0.320039 16.9898 0.0400391 16.6498 0.0400391ZM12.7598 12.86H4.64984V4.65004H12.7598V12.85V12.86Z" fill="#F2352C"></path>
<path d="M20.0999 0.660039V17.15C20.0999 17.49 20.3699 17.77 20.7099 17.77H25.5298C25.8698 17.77 26.1398 17.49 26.1398 17.15V6.78004C26.1398 6.44004 26.4098 6.16004 26.7498 6.16004H39.5499C39.8899 6.16004 40.1599 5.88004 40.1599 5.54004V0.660039C40.1599 0.320039 39.8899 0.0400391 39.5499 0.0400391H20.6998C20.3598 0.0400391 20.0898 0.320039 20.0898 0.660039H20.0999Z" fill="#FFD712"></path>
<path d="M0.700073 27.6701H33.2701C33.6101 27.6701 33.8801 27.9401 33.8801 28.2601V38.0501C33.8801 38.3801 34.1501 38.6401 34.4901 38.6401H39.3101C39.6501 38.6401 39.9201 38.3701 39.9201 38.0501V22.4201C39.9201 22.0901 39.6501 21.8301 39.3101 21.8301H0.690079C0.350079 21.8301 0.0800781 22.1001 0.0800781 22.4201V27.0801C0.0800781 27.4101 0.350079 27.6701 0.690079 27.6701H0.700073Z" fill="#0EAF22"></path>
<path d="M34.2598 8.43994C31.1298 8.43994 28.5898 11.0099 28.5898 14.1799C28.5898 17.3499 31.1398 19.9199 34.2598 19.9199C37.3798 19.9199 39.9298 17.3499 39.9298 14.1799C39.9298 11.0099 37.3798 8.43994 34.2598 8.43994ZM34.2598 16.8099C32.8198 16.8099 31.6599 15.6299 31.6599 14.1799C31.6599 12.7299 32.8198 11.5499 34.2598 11.5499C35.6998 11.5499 36.8598 12.7299 36.8598 14.1799C36.8598 15.6299 35.6998 16.8099 34.2598 16.8099Z" fill="#E6007E"></path>
<path d="M29.8503 31.52H24.8203C24.2459 31.52 23.7803 31.9856 23.7803 32.56V37.59C23.7803 38.1644 24.2459 38.63 24.8203 38.63H29.8503C30.4247 38.63 30.8903 38.1644 30.8903 37.59V32.56C30.8903 31.9856 30.4247 31.52 29.8503 31.52Z" fill="#F28522"></path>
</svg></svg></g></g><defs><clipPath id="SvgjsClipPath1909"><rect width="1000" height="1000" x="0" y="0" rx="350" ry="350"></rect></clipPath></defs></svg>